<mxfile host="65bd71144e">
    <diagram id="Ny65mwLnFDzuYk7Xo06S" name="第 1 页">
        <mxGraphModel dx="1026" dy="739" grid="1" gridSize="10" guides="1" tooltips="1" connect="1" arrows="1" fold="1" page="1" pageScale="1" pageWidth="827" pageHeight="1169" math="0" shadow="0">
            <root>
                <mxCell id="0"/>
                <mxCell id="1" parent="0"/>
                <mxCell id="6" value="" style="rounded=0;whiteSpace=wrap;html=1;" vertex="1" parent="1">
                    <mxGeometry x="190" y="270" width="610" height="410" as="geometry"/>
                </mxCell>
                <mxCell id="7" value="Server" style="rounded=0;whiteSpace=wrap;html=1;" vertex="1" parent="1">
                    <mxGeometry x="200" y="280" width="370" height="30" as="geometry"/>
                </mxCell>
                <mxCell id="9" value="SQL Parser" style="rounded=0;whiteSpace=wrap;html=1;" vertex="1" parent="1">
                    <mxGeometry x="200" y="320" width="370" height="30" as="geometry"/>
                </mxCell>
                <mxCell id="10" value="SQL Optimization" style="rounded=0;whiteSpace=wrap;html=1;" vertex="1" parent="1">
                    <mxGeometry x="200" y="360" width="370" height="30" as="geometry"/>
                </mxCell>
                <mxCell id="11" value="KV Api" style="rounded=0;whiteSpace=wrap;html=1;" vertex="1" parent="1">
                    <mxGeometry x="200" y="400" width="170" height="30" as="geometry"/>
                </mxCell>
                <mxCell id="12" value="Raft Api" style="rounded=0;whiteSpace=wrap;html=1;" vertex="1" parent="1">
                    <mxGeometry x="400" y="400" width="170" height="30" as="geometry"/>
                </mxCell>
                <mxCell id="13" value="Immutable SSTable" style="rounded=0;whiteSpace=wrap;html=1;" vertex="1" parent="1">
                    <mxGeometry x="200" y="520" width="170" height="30" as="geometry"/>
                </mxCell>
                <mxCell id="14" value="WAL log" style="rounded=0;whiteSpace=wrap;html=1;" vertex="1" parent="1">
                    <mxGeometry x="400" y="480" width="170" height="30" as="geometry"/>
                </mxCell>
                <mxCell id="15" value="" style="shape=singleArrow;direction=south;whiteSpace=wrap;html=1;" vertex="1" parent="1">
                    <mxGeometry x="355" y="440" width="60" height="30" as="geometry"/>
                </mxCell>
                <mxCell id="24" style="edgeStyle=none;html=1;exitX=1;exitY=0.5;exitDx=0;exitDy=0;" edge="1" parent="1" source="16" target="14">
                    <mxGeometry relative="1" as="geometry"/>
                </mxCell>
                <mxCell id="16" value="MemTable" style="rounded=0;whiteSpace=wrap;html=1;" vertex="1" parent="1">
                    <mxGeometry x="200" y="480" width="170" height="30" as="geometry"/>
                </mxCell>
                <mxCell id="25" value="Level SSTable Data" style="rounded=0;whiteSpace=wrap;html=1;" vertex="1" parent="1">
                    <mxGeometry x="200" y="600" width="370" height="30" as="geometry"/>
                </mxCell>
                <mxCell id="26" value="Meta Info" style="rounded=0;whiteSpace=wrap;html=1;" vertex="1" parent="1">
                    <mxGeometry x="200" y="560" width="370" height="30" as="geometry"/>
                </mxCell>
                <mxCell id="27" value="Compaction" style="rounded=0;whiteSpace=wrap;html=1;" vertex="1" parent="1">
                    <mxGeometry x="580" y="560" width="210" height="110" as="geometry"/>
                </mxCell>
                <mxCell id="28" value="Lock File" style="rounded=0;whiteSpace=wrap;html=1;" vertex="1" parent="1">
                    <mxGeometry x="200" y="640" width="370" height="30" as="geometry"/>
                </mxCell>
                <mxCell id="29" value="Crash Handler" style="rounded=0;whiteSpace=wrap;html=1;" vertex="1" parent="1">
                    <mxGeometry x="580" y="480" width="210" height="70" as="geometry"/>
                </mxCell>
            </root>
        </mxGraphModel>
    </diagram>
</mxfile>